HIERARCHY
ROOT Hips
{
    OFFSET 0.0 0.0 0.0
    CHANNELS 6 Xposition Yposition Zposition Zrotation Xrotation Yrotation
    JOINT LeftHipJoint
    {
        OFFSET 0.1 0.0 0.0
        CHANNELS 3 Zrotation Xrotation Yrotation
        JOINT LeftUpLeg
        {
            OFFSET 116.73814260710044 0.0 0.0
            CHANNELS 3 Zrotation Xrotation Yrotation
            JOINT LeftLeg
            {
                OFFSET 0.0 0.0 -387.5617915844068
                CHANNELS 3 Zrotation Xrotation Yrotation
                JOINT LeftFoot
                {
                    OFFSET 0.0 0.0 -392.95599440547414
                    CHANNELS 3 Zrotation Xrotation Yrotation
                    End Site
                    {
                        OFFSET 0.0 -0.1 0.0
                    }
                }
            }
        }
    }
    JOINT LowerBack
    {
        OFFSET 0.0 0.0 0.1
        CHANNELS 3 Zrotation Xrotation Yrotation
        JOINT Spine
        {
            OFFSET 0.0 0.0 218.74120232316127
            CHANNELS 3 Zrotation Xrotation Yrotation
            JOINT Spine1
            {
                OFFSET 0.0 0.0 254.33520999042574
                CHANNELS 3 Zrotation Xrotation Yrotation
                JOINT LeftShoulder
                {
                    OFFSET 0.1 0.0 0.0
                    CHANNELS 3 Zrotation Xrotation Yrotation
                    JOINT LeftArm
                    {
                        OFFSET 143.3409676092171 0.0 0.0
                        CHANNELS 3 Zrotation Xrotation Yrotation
                        JOINT LeftForeArm
                        {
                            OFFSET 254.1992786440905 0.0 0.0
                            CHANNELS 3 Zrotation Xrotation Yrotation
                            JOINT LeftHand
                            {
                                OFFSET 242.8802247690625 0.0 0.0
                                CHANNELS 3 Zrotation Xrotation Yrotation
                                End Site
                                {
                                    OFFSET 0.1 0.0 0.0
                                }
                            }
                        }
                    }
                }
                JOINT Neck
                {
                    OFFSET 0.0 0.0 0.1
                    CHANNELS 3 Zrotation Xrotation Yrotation
                    JOINT Neck1
                    {
                        OFFSET 0.0 0.0 108.22645231778321
                        CHANNELS 3 Zrotation Xrotation Yrotation
                        End Site
                        {
                            OFFSET 0.0 0.0 115.25759758907313
                        }
                    }
                }
                JOINT RightShoulder
                {
                    OFFSET -0.1 0.0 0.0
                    CHANNELS 3 Zrotation Xrotation Yrotation
                    JOINT RightArm
                    {
                        OFFSET -143.3409676092171 0.0 0.0
                        CHANNELS 3 Zrotation Xrotation Yrotation
                        JOINT RightForeArm
                        {
                            OFFSET -254.1992786440905 0.0 0.0
                            CHANNELS 3 Zrotation Xrotation Yrotation
                            JOINT RightHand
                            {
                                OFFSET -242.8802247690625 0.0 0.0
                                CHANNELS 3 Zrotation Xrotation Yrotation
                                End Site
                                {
                                    OFFSET -0.1 0.0 0.0
                                }
                            }
                        }
                    }
                }
            }
        }
    }
    JOINT RightHipJoint
    {
        OFFSET -0.1 0.0 0.0
        CHANNELS 3 Zrotation Xrotation Yrotation
        JOINT RightUpLeg
        {
            OFFSET -116.73814260710044 0.0 0.0
            CHANNELS 3 Zrotation Xrotation Yrotation
            JOINT RightLeg
            {
                OFFSET 0.0 0.0 -387.5617915844068
                CHANNELS 3 Zrotation Xrotation Yrotation
                JOINT RightFoot
                {
                    OFFSET 0.0 0.0 -392.95599440547414
                    CHANNELS 3 Zrotation Xrotation Yrotation
                    End Site
                    {
                        OFFSET 0.0 -0.1 0.0
                    }
                }
            }
        }
    }
}
MOTION
Frames: 10
Frame Time: 0.03333333333333333
0.0 0.0 810.6283010280306 27.723419935451282 0.8230153370022365 3.8949398384259264 0.0 0.0 -1.4908850069360235e-16 0.20216980417913138 -25.837032072789896 -0.4433877195137541 -0.549456705121686 31.36279800731881 0.2675377837610553 0.0 0.0 1.987846675914698e-16 0.0 0.0 -1.4908850069360235e-16 0.06256082963630152 -8.674436813957048 0.8103905477218004 2.7287735017471118 -1.192369852476185e-15 2.839932052288543e-17 0.0 0.0 0.0 -28.369030044018867 16.34898490006681 77.00131321346703 -21.27300951772853 2.025170507352939e-15 6.448133230667102e-15 1.5902773407317584e-15 7.951386703658792e-16 2.1866313435061676e-15 0.0 0.0 0.0 -9.628960650240964 -4.523508604193817 3.258359126168267 0.0 0.0 0.0 10.512096930153971 -44.13185685035747 -30.294882029235534 111.4646377873885 -3.350473279581859e-15 -1.7677217751098496e-14 0.0 0.0 0.0 0.0 0.0 -1.4908850069360235e-16 0.13497728936627082 -18.633960420416297 1.7843168615662053 0.7283977947728515 28.275924649082324 -2.1858335153316997 0.0 0.0 3.975693351829396e-16
0.0 0.0 810.6283010280306 27.69717519780471 0.8813002169330436 4.007692246565117 0.0 0.0 2.577988657826874e-16 0.17434582731954665 -25.91858476482962 -0.5994841673275977 -0.608116841042694 31.490552535539578 0.3697706275510307 1.034509288605506e-33 5.963540027744094e-16 -1.987846675914698e-16 0.0 0.0 2.577988657826874e-16 0.05358391687497967 -8.669516109369825 0.6932342442618286 2.755916627588065 -1.5993780410078664e-15 -3.592120246658192e-16 -3.4483642953516864e-34 9.93923337957349e-17 3.975693351829396e-16 -28.544199082244553 16.42805278782176 77.14730584851851 -21.20229566839977 -4.9913696507012e-15 9.379848986869718e-15 0.0 0.0 2.882377680076312e-15 -3.4483642953516864e-34 9.93923337957349e-17 3.975693351829396e-16 -9.6043682061289 -4.542068205912312 3.196925958051699 -3.4483642953516864e-34 9.93923337957349e-17 3.975693351829396e-16 10.32901092011211 -44.25655762759101 -30.375234694025437 111.50437962194412 0.0 0.0 0.0 0.0 0.0 0.0 0.0 2.577988657826874e-16 0.11578838488099603 -18.71210848519265 1.6478647504720365 0.6938869943318241 28.47409754031565 -2.2132420087954348 0.0 0.0 0.0
0.0 0.0 810.6283010280306 27.715591111026217 0.9184233949886729 4.036920522527438 0.0 0.0 -1.2424041724466862e-16 0.1651852301351833 -25.67102381182191 -0.6713292664988245 -0.6302105311524022 31.041708486819378 0.49673182639663843 0.0 0.0 0.0 0.0 0.0 -1.2424041724466862e-16 0.05144138797772523 -8.693811232422656 0.6999771310805494 2.7837113660196438 1.3524541606595886e-15 -1.623607595191199e-15 0.0 0.0 0.0 -28.14290379424118 16.57806493014123 77.12759639417486 -21.0971733738768 -2.6187511682754065e-15 5.376200210326014e-15 1.5902773407317584e-15 7.951386703658791e-16 -9.14409470920761e-15 0.0 0.0 0.0 -9.594178612111378 -4.4630467331312955 3.2382872774887623 0.0 0.0 0.0 10.180434025334668 -44.22886423334889 -30.409282771086957 111.39795096776271 5.254837497190065e-15 3.584744789415732e-15 -1.5902773407317584e-15 0.0 0.0 0.0 0.0 -1.2424041724466862e-16 0.10919881581232377 -18.470627659267016 1.5123172097339355 0.6181436175974283 28.05036802628822 -2.061654412635155 0.0 0.0 -3.975693351829396e-16
0.0 0.0 810.6283010280306 27.62353587595731 0.9491177901316661 4.008997881510817 0.0 0.0 -3.214720796205801e-16 0.16245932541357946 -25.716107025307036 -0.6542175957761568 -0.6155163375125026 31.030637249289317 0.5035690177067408 0.0 0.0 0.0 0.0 0.0 -3.214720796205801e-16 0.05029245607266631 -8.662681943925294 0.6497050148464484 2.885845933656576 9.936081707913404e-17 -2.502807769216327e-18 0.0 0.0 0.0 -27.93313449232235 16.610323732375914 77.15513999772415 -20.99514858738122 -1.7664295165183504e-15 -1.6652412307561845e-14 0.0 0.0 1.4908850069360234e-15 0.0 0.0 0.0 -9.50901379914392 -4.567623905068715 3.2627846402119376 0.0 0.0 0.0 10.300119134563413 -44.246821727185065 -30.27531447370588 111.42635038668979 3.5834423641199366e-15 -5.255725749137646e-15 -1.5902773407317582e-15 -1.5902773407317582e-15 -2.2069531490250793e-32 0.0 0.0 -3.214720796205801e-16 0.10767574357317644 -18.56018400083998 1.5491999004374561 0.6372053324378285 27.899558800255335 -2.0690997787197967 0.0 0.0 7.951386703658792e-16
0.0 0.0 810.6283010280306 27.582916288071996 0.941729016783095 4.004463805901952 -1.0695317384801715e-33 -1.987846675914698e-16 -6.165430705766681e-16 0.1601321564719819 -25.68431806418772 -0.6800255095632556 -0.619117961011772 30.65815231182606 0.5617742730565507 0.0 0.0 3.975693351829396e-16 -1.0695317384801715e-33 -1.987846675914698e-16 -6.165430705766681e-16 0.04932180361734726 -8.600514631549268 0.6086548323472049 2.9405415373459634 2.473789345439352e-15 -4.611942774149408e-16 0.0 0.0 0.0 -27.71003058972873 16.652793605230503 77.16806541552211 -21.05745546966358 1.119331429037144e-15 7.0319096483160135e-15 0.0 0.0 2.9817700138720468e-15 0.0 0.0 0.0 -9.379373202247741 -4.646881093557695 3.3254985320373955 0.0 0.0 0.0 10.409957679511058 -44.203757804654 -30.145282728159774 111.2544740715183 -5.523619219652148e-15 1.9342356474521637e-14 0.0 0.0 0.0 -1.0695317384801715e-33 -1.987846675914698e-16 -6.165430705766681e-16 0.10618521995624387 -18.507737986824697 1.5534735090875882 0.6348478763105957 27.643605050950352 -2.0060748776097155 0.0 1.987846675914698e-16 0.0
0.0 0.0 810.6283010280306 27.523487554313512 0.8502862217951317 3.9709647056015056 0.0 0.0 -5.466578358765419e-16 0.1501330993938225 -25.802696140892746 -0.5938423642784249 -0.5579462228509412 30.859348425583455 0.491188902241995 0.0 0.0 -1.987846675914698e-16 0.0 0.0 -5.466578358765419e-16 0.0455285017028256 -8.524949842116628 0.5500165850898322 2.9942552854828044 1.0387227770388193e-17 3.9743361933416084e-16 0.0 0.0 0.0 -27.834429356557354 16.663265174467224 77.27748126596757 -21.101218194324634 2.402285132623937e-15 -1.2897979101708266e-14 0.0 0.0 1.0933156717530838e-15 0.0 0.0 0.0 -9.25499096869961 -4.649337868759271 3.316459976194639 0.0 0.0 0.0 10.408974324310128 -44.08721661749967 -30.113146216669456 111.27406571725363 -6.911494186441918e-15 -1.2431806375035344e-14 0.0 0.0 0.0 0.0 0.0 -5.466578358765419e-16 0.09978371694530976 -18.68969474484197 1.6971041566928173 0.7283700163161025 27.84066733201359 -2.126735252862838 0.0 0.0 -3.975693351829396e-16
0.0 0.0 810.6283010280306 27.549442725313458 0.8278080594628793 4.017080250416771 0.0 0.0 -1.428764798313689e-16 0.1441447007213237 -25.713777948851533 -0.7088754063788434 -0.6197294829014648 30.878942639456557 0.5809271462596757 -5.172546443027529e-33 -9.93923337957349e-16 -5.963540027744094e-16 0.0 0.0 -1.428764798313689e-16 0.043948012773600324 -8.53812136126914 0.5044307946808911 3.0348055479222475 5.856170120415113e-16 -4.1322171785911426e-16 0.0 0.0 0.0 -28.12859042507577 16.759403312553324 77.38358170082748 -21.222941845614645 5.1559368114952745e-15 -2.3202102345450485e-14 0.0 0.0 2.882377680076312e-15 0.0 0.0 0.0 -9.292763137976458 -4.617874537451146 3.3249318630426994 0.0 0.0 0.0 10.365559429032313 -43.85986884551674 -30.075328567992695 111.38499728481686 -5.254432236147255e-15 -3.585338784948297e-15 0.0 0.0 0.0 0.0 0.0 -1.428764798313689e-16 0.09557997184214023 -18.586121057466332 1.6582606144245295 0.7094614998303509 27.687610724202447 -2.101628261274014 0.0 0.0 3.975693351829396e-16
0.0 0.0 810.6283010280306 27.609543605033423 0.7450385748433651 4.037302294193583 0.0 0.0 6.212020862233431e-17 0.13180086671550417 -25.553865400868983 -0.7241253688037911 -0.6128812770870512 30.877210462799653 0.6285020543944523 0.0 0.0 -1.987846675914698e-16 0.0 0.0 6.212020862233431e-17 0.04015195802641117 -8.485591852042003 0.4269572807751598 3.100728350100996 -1.7668940844917342e-15 8.432518419338774e-16 -6.3611093629270335e-15 9.93923337957349e-17 5.517382872562698e-33 -27.77780558695829 16.819889971870307 77.34967790445738 -21.497679794606253 2.5355714220112565e-15 -4.8299483803847076e-15 0.0 0.0 1.4908850069360238e-15 -6.3611093629270335e-15 9.93923337957349e-17 5.517382872562698e-33 -9.21847322135379 -4.608651047583315 3.3619744674497087 -6.3611093629270335e-15 9.93923337957349e-17 5.517382872562698e-33 10.195568364769132 -43.605049713958614 -30.094219946666588 111.33439878895454 1.0505697198148724e-14 7.175317114196554e-15 0.0 0.0 0.0 0.0 0.0 6.212020862233431e-17 0.08665959556530696 -18.388313509236255 1.6374601005756575 0.706215361760199 27.503232931458104 -2.034085636343986 0.0 0.0 -3.975693351829396e-16
0.0 0.0 810.6283010280306 27.57972591924814 0.7049764820488686 4.069209981598589 0.0 0.0 -1.0808916300286171e-15 0.13859532134124616 -25.366743970426956 -0.8148904090958835 -0.6761463161796549 30.80767705015645 0.8114871978145535 0.0 0.0 0.0 0.0 0.0 -1.0808916300286171e-15 0.04229221093132829 -8.413865785133813 0.4209056499555009 3.1835945500142966 -2.5611156581267757e-15 8.666171233862825e-16 3.4483642953516864e-34 -9.93923337957349e-17 3.975693351829396e-16 -27.614842689700748 16.881452537326933 77.33586057399364 -21.652878857045653 -1.4344118320854089e-15 3.2674580827233285e-15 0.0 0.0 -1.2921003393445538e-15 3.4483642953516864e-34 -9.93923337957349e-17 3.975693351829396e-16 -9.213395265286666 -4.618106204515671 3.2939606892780726 3.4483642953516864e-34 -9.93923337957349e-17 3.975693351829396e-16 9.80671763059066 -43.57452635440182 -30.330473059984502 111.39855768351926 -1.6701395097483873e-15 -8.839573444019421e-15 0.0 0.0 0.0 0.0 0.0 -1.0808916300286171e-15 0.09086966686110191 -18.123212237966385 1.5689833773422495 0.6519121947212948 27.16009857865176 -1.9255979718515175 0.0 0.0 3.975693351829396e-16
0.0 0.0 810.6283010280306 27.609839033215945 0.6625128446867606 4.1337215646287095 0.0 0.0 -2.981770013872047e-16 0.12374286996823992 -25.19269662300219 -0.9066188545556453 -0.7095001189711343 30.74517873137865 0.8683841555837405 0.0 0.0 0.0 0.0 0.0 -2.981770013872047e-16 0.03759081363009641 -8.33440314851228 0.399545064212172 3.2543105858393893 2.1970387670073967e-15 3.3531875126215716e-16 -3.4483642953516864e-34 9.939233379573489e-17 3.9756933518293955e-16 -27.237183226701827 16.909831732978713 77.19798240070575 -21.954715577918083 -2.4645422361649176e-15 -8.172657219670181e-15 0.0 0.0 7.951386703658792e-16 -3.4483642953516864e-34 9.939233379573489e-17 3.9756933518293955e-16 -9.22882482875608 -4.624322580556496 3.1773558394193393 -3.4483642953516864e-34 9.939233379573489e-17 3.9756933518293955e-16 9.633150487475698 -43.40746840161381 -30.473071349490894 111.16292437577648 3.595514881920949e-15 -5.247474160108172e-15 -1.5902773407317584e-15 0.0 0.0 0.0 0.0 -2.981770013872047e-16 0.07991828560988869 -17.850355795649754 1.452507799245106 0.6009008125748646 26.88110705072662 -1.856827402457409 0.0 0.0 7.951386703658792e-16
